<?xml version="1.0" encoding="utf-8"?>
<!-- Svg Vector Icons : http://www.onlinewebfonts.com/icon -->
<!DOCTYPE svg PUBLIC "-//W3C//DTD SVG 1.1//EN" "http://www.w3.org/Graphics/SVG/1.1/DTD/svg11.dtd">
<!-- <svg version="1.1" xmlns="http://www.w3.org/2000/svg" xmlns:xlink="http://www.w3.org/1999/xlink" x="0px" y="0px" viewBox="0 0 1000 1000" enable-background="new 0 0 1000 1000" xml:space="preserve"> -->
<svg x="0px" y="0px" viewBox="0 0 1000 1000" enable-background="new 0 0 1000 1000" xml:space="preserve">
<metadata> Svg Vector Icons : http://www.onlinewebfonts.com/icon </metadata>
<g><g transform="translate(0.000000,511.000000) scale(0.100000,-0.100000)"><path d="M4892.6,4970.8c-212.8-132.7-398.2-531-529-1134.2l-52.7-244l-7.8-1044.4l-7.8-1044.4L2196.7,256.2L100-993.2v-349.4v-349.5l54.7,11.7c978,214.7,4134.7,884.4,4140.6,878.5c3.9-3.9,171.8-1731.6,236.2-2442.2c0-1.9-277.2-214.7-614.9-474.4l-614.9-470.5v-302.6c0-279.2,2-302.6,35.1-292.8c117.1,37.1,1622.3,382.6,1663.3,382.6c41,0,1546.1-345.5,1665.2-382.6c31.3-9.7,33.2,13.7,33.2,292.8v302.6l-579.8,443.1c-320.1,242.1-597.4,456.8-614.9,474.4c-31.2,29.3-27.3,97.6,80,1247.4c62.5,669.6,117.1,1220.1,121,1222.1c3.9,3.9,942.9-193.3,2086.9-439.2s2084.9-447.1,2094.7-447.1c7.8,0,13.7,156.2,13.7,347.5v347.5L7803.3,256.2L5704.7,1503.7l-7.8,1044.4l-7.8,1044.4l-50.8,240.1c-105.4,478.3-253.8,853.1-404.1,1024.9C5101.5,5007.9,5003.9,5041,4892.6,4970.8z"/></g></g>
</svg>