<?xml version="1.0" standalone="no"?>
<!DOCTYPE svg PUBLIC "-//W3C//DTD SVG 20010904//EN"
 "http://www.w3.org/TR/2001/REC-SVG-20010904/DTD/svg10.dtd">
<svg version="1.0" xmlns="http://www.w3.org/2000/svg"
 width="1114.000000pt" height="1114.000000pt" viewBox="0 0 1114.000000 1114.000000"
 preserveAspectRatio="xMidYMid meet">
<metadata>
Created by potrace 1.14, written by Peter Selinger 2001-2017
</metadata>
<g transform="translate(0.000000,1114.000000) scale(0.100000,-0.100000)"
fill="#000000" stroke="none">
<path d="M3018 10835 c-2 -1 -43 -5 -93 -9 -49 -4 -106 -8 -125 -11 -19 -2
-57 -7 -84 -11 -27 -3 -58 -8 -70 -10 -11 -2 -36 -6 -56 -9 -20 -3 -47 -8 -60
-10 -67 -14 -127 -27 -150 -31 -36 -7 -167 -43 -220 -61 -25 -8 -52 -16 -60
-18 -29 -7 -176 -63 -256 -98 -490 -212 -902 -558 -1199 -1006 -282 -427 -458
-942 -531 -1551 -22 -183 -27 -764 -9 -946 93 -921 496 -1893 1178 -2844 83
-115 249 -337 288 -385 10 -11 72 -87 140 -170 132 -162 289 -342 458 -525
186 -203 728 -738 901 -890 17 -15 164 -147 184 -165 6 -5 45 -39 86 -75 41
-36 80 -69 86 -75 6 -5 35 -30 64 -55 29 -25 88 -74 130 -110 42 -36 118 -99
169 -140 52 -41 101 -82 110 -90 9 -9 35 -29 56 -45 22 -17 45 -34 51 -40 6
-5 26 -21 44 -35 18 -14 38 -30 44 -35 22 -22 407 -315 591 -451 283 -209 628
-453 844 -597 l54 -36 141 97 c702 480 1395 1008 1976 1506 178 152 195 167
359 316 51 47 103 93 114 103 108 94 599 580 773 766 117 124 349 386 449 506
32 39 75 90 96 115 204 245 567 752 721 1010 143 239 200 341 304 550 271 546
432 1039 518 1590 35 223 51 699 33 953 -98 1361 -737 2342 -1812 2780 -122
49 -294 107 -395 132 -165 41 -212 49 -495 90 -177 26 -753 26 -890 1 -11 -2
-47 -7 -80 -10 -130 -15 -351 -57 -480 -92 -27 -7 -77 -20 -110 -29 -325 -88
-721 -253 -1095 -458 l-125 -69 -50 27 c-472 251 -733 364 -1120 483 -55 17
-131 39 -170 48 -38 9 -78 18 -87 20 -88 20 -157 34 -278 54 -53 8 -87 13
-195 25 -27 3 -68 8 -90 11 -43 6 -571 14 -577 9z"/>
</g>
</svg>
